<svg width="216" height="104" viewBox="0 0 216 104" fill="none" xmlns="http://www.w3.org/2000/svg">
<path d="M46.052 2.10938C48.7812 2.19271 51.2291 2.96354 53.3958 4.42187C55.5885 5.85937 57.2447 7.82292 58.3697 10.3021L88.3228 74.0833C89.3436 76.125 89.8541 78.1666 89.8541 80.2135C89.8541 82.776 89.2082 85.1302 87.9166 87.276C86.6457 89.401 84.9426 91.1145 82.8176 92.4062C80.6926 93.677 78.3489 94.3124 75.7864 94.3124C72.8645 94.3124 70.2499 93.6562 67.9374 92.3437C65.6457 91.0104 63.9843 88.9322 62.9635 86.1197L59.651 76.3958H31.8541L28.3854 86.1197C27.3645 88.9322 25.7187 91.0104 23.4479 92.3437C21.1927 93.6562 18.5781 94.3124 15.5989 94.3124C13.0364 94.3124 10.677 93.677 8.53121 92.4062C6.40621 91.1145 4.69787 89.401 3.40621 87.276C2.13538 85.1302 1.49475 82.776 1.49475 80.2135C1.49475 78.1666 2.01038 76.125 3.03121 74.0833L33.0104 10.3021C34.1197 7.82292 35.7968 5.83854 38.0468 4.35938C40.3176 2.85938 42.776 2.10938 45.427 2.10938C45.5937 2.10938 45.7187 2.10938 45.802 2.10938C45.8853 2.10938 45.9687 2.10938 46.052 2.10938ZM52.0833 54.6041L45.802 36.4375L39.3906 54.6041H52.0833Z" stroke="black" stroke-width="2.32118"/>
<path d="M136.396 92.608C136.396 88.9413 137.469 86.1913 139.605 84.358C141.73 82.5142 144.558 81.5872 148.084 81.5872H204.084C207.459 81.5872 210.25 82.5142 212.459 84.358C214.667 86.1913 215.771 88.9413 215.771 92.608C215.771 96.207 214.667 98.9413 212.459 100.816C210.25 102.691 207.459 103.629 204.084 103.629H148.084C144.558 103.629 141.73 102.691 139.605 100.816C137.469 98.9413 136.396 96.207 136.396 92.608Z" fill="#FFDE59"/>
<path d="M57.6777 19.6682C61.3444 19.6682 64.0944 20.7411 65.9277 22.8765C67.7714 25.0015 68.6985 27.8297 68.6985 31.3557V87.3557C68.6985 90.7307 67.7714 93.5224 65.9277 95.7307C64.0944 97.939 61.3444 99.0432 57.6777 99.0432C54.0787 99.0432 51.3444 97.939 49.4694 95.7307C47.5944 93.5224 46.6569 90.7307 46.6569 87.3557V31.3557C46.6569 27.8297 47.5944 25.0015 49.4694 22.8765C51.3444 20.7411 54.0787 19.6682 57.6777 19.6682Z" fill="#5CE1E6"/>
<path d="M50.6927 72.2708L83.2136 33.875C83.7344 33.3541 84.2031 32.7812 84.6198 32.1562C85.0573 31.5104 85.2761 30.8854 85.2761 30.2812C85.2761 28.0469 83.9948 26.9323 81.4271 26.9323C79.8854 26.9323 78.3229 27.4739 76.7396 28.5625C75.1771 29.625 73.1563 31.0521 70.6719 32.8437C68.4427 34.5521 65.9636 35.4062 63.2344 35.4062C59.8959 35.4062 56.9688 34.3021 54.448 32.0937C51.948 29.8646 50.6927 26.776 50.6927 22.8385C50.6927 21.8177 50.8177 20.8802 51.0677 20.026C51.3177 19.1719 51.6198 18.3177 51.9792 17.4583C54.0209 12.9375 57.875 9.24999 63.5469 6.39062C69.2344 3.53646 76.0521 2.10938 83.9948 2.10938C92.9531 2.10938 100.104 4.41146 105.443 9.02083C110.776 13.625 113.443 20.1198 113.443 28.5C113.443 32.5833 112.693 36.2708 111.193 39.5677C109.693 42.8594 107.203 46.6823 103.719 51.0416L90.1198 67.9218H107.286C109.932 67.9218 112.193 68.5885 114.068 69.927C115.948 71.2395 117.375 72.8854 118.354 74.8645C119.354 76.8229 119.854 78.6979 119.854 80.4947C119.854 82.2864 119.406 84.1614 118.51 86.1197C117.615 88.0781 116.24 89.7239 114.385 91.0624C112.547 92.3749 110.182 93.0312 107.286 93.0312H59.9167C56.25 93.0312 53.2396 91.7708 50.8802 89.2447C48.5261 86.7239 47.349 83.8072 47.349 80.4947C47.349 78.9479 47.6511 77.4791 48.2552 76.0833C48.8594 74.6666 49.6719 73.3958 50.6927 72.2708ZM138.547 3.39062H189.26C192.766 3.39062 195.724 4.60938 198.141 7.04687C200.578 9.46875 201.797 12.4271 201.797 15.9271C201.797 17.3021 201.557 18.6406 201.078 19.9323C200.62 21.2031 200.005 22.3489 199.234 23.3698L166.969 67.9218H189.26C192.766 67.9218 195.724 69.1406 198.141 71.5833C200.578 74.0208 201.797 76.9895 201.797 80.4947C201.797 83.8906 200.578 86.8281 198.141 89.3072C195.724 91.7916 192.766 93.0312 189.26 93.0312H138.547C135.13 93.0312 132.182 91.7916 129.698 89.3072C127.219 86.8281 125.979 83.8906 125.979 80.4947C125.979 79.0312 126.208 77.6874 126.667 76.4583C127.146 75.2083 127.771 74.0729 128.542 73.052L160.807 28.5H138.547C135.13 28.5 132.182 27.2552 129.698 24.776C127.219 22.2969 125.979 19.3489 125.979 15.9271C125.979 12.4271 127.219 9.46875 129.698 7.04687C132.182 4.60938 135.13 3.39062 138.547 3.39062Z" stroke="black" stroke-width="2.32118"/>
</svg>
